<!DOCTYPE svg PUBLIC "-//W3C//DTD SVG 1.1//EN" "http://www.w3.org/Graphics/SVG/1.1/DTD/svg11.dtd">
<!-- Uploaded to: SVG Repo, www.svgrepo.com, Transformed by: SVG Repo Mixer Tools -->
<svg fill="#000000" width="800px" height="800px" viewBox="0 0 24 24" xmlns="http://www.w3.org/2000/svg">
<g id="SVGRepo_bgCarrier" stroke-width="0"/>
<g id="SVGRepo_tracerCarrier" stroke-linecap="round" stroke-linejoin="round"/>
<g id="SVGRepo_iconCarrier">
<path d="M9,12h6v2H9Zm13.781-1.375A1,1,0,0,1,22,11H21V22a1,1,0,0,1-1,1H4a1,1,0,0,1-1-1V11H2l.016-.016a.979.979,0,0,1-.8-.359,1,1,0,0,1,.156-1.406l10-8a1,1,0,0,1,1.25,0L17,4.719V2a1,1,0,0,1,2,0V6.319l3.625,2.9A1,1,0,0,1,22.781,10.625ZM9.851,5h4.3L12,3.28ZM4.979,8.9H19.021L16.649,7h-9.3ZM13,18a1,1,0,0,0-2,0v3h2Zm6-7H5v1H7v2H5v2H7v2H5v3H9V18a3,3,0,0,1,6,0v3h4V18H17V16h2V14H17V12h2Z"/>
</g>
</svg>